<?xml version="1.0" encoding="UTF-8" standalone="no"?>
<svg
   width="34"
   height="34"
   class=""
   version="1.1"
   id="svg2"
   sodipodi:docname="qdLogo.svg"
   inkscape:version="1.3.2 (091e20ef0f, 2023-11-25)"
   xmlns:inkscape="http://www.inkscape.org/namespaces/inkscape"
   xmlns:sodipodi="http://sodipodi.sourceforge.net/DTD/sodipodi-0.dtd"
   xmlns="http://www.w3.org/2000/svg"
   xmlns:svg="http://www.w3.org/2000/svg">
  <sodipodi:namedview
     id="namedview2"
     pagecolor="#ffffff"
     bordercolor="#000000"
     borderopacity="0.25"
     inkscape:showpageshadow="2"
     inkscape:pageopacity="0.0"
     inkscape:pagecheckerboard="0"
     inkscape:deskcolor="#d1d1d1"
     inkscape:zoom="18.382353"
     inkscape:cx="15.9936"
     inkscape:cy="17"
     inkscape:window-width="1600"
     inkscape:window-height="831"
     inkscape:window-x="0"
     inkscape:window-y="0"
     inkscape:window-maximized="1"
     inkscape:current-layer="g2" />
  <defs
     id="defs1">
    <filter
       height="1"
       width="1.0001521"
       y="0"
       x="-7.6039608e-05"
       id="a">
      <feGaussianBlur
         in="SourceGraphic"
         id="feGaussianBlur1"
         stdDeviation="0.001 0" />
    </filter>
  </defs>
  <path
     fill="none"
     d="M-1-1h36v36H-1z"
     id="path1" />
  <g
     id="g2"
     transform="matrix(0.99451118,0,0,1,-9.1114341e-4,0)">
    <path
       d="m 0.10151836,5.5814375 c 0,-3.155 1.59013014,-5.4825 3.73542104,-5.4825 l 26.4539996,0 c 1.043,0 2.043,0.602 2.78,1.673 C 33.808939,2.8429375 34.152,3.991 34.152,5.507 v 22.849 c 0,3.155 -1.545259,5.613825 -3.717259,5.613825 h -16.087 -8.5799998 -1.787 c -2.172,0 -3.87922284,-2.383387 -3.87922284,-5.538388 l 0,-22.8489995 z"
       fill-opacity="null"
       fill="#7f00ff"
       id="path2"
       sodipodi:nodetypes="ssscsssccsscs" />
    <text
       filter="url(#a)"
       font-weight="bold"
       stroke="#000000"
       transform="matrix(1.2316744,0,0,1.1866,-4.5872224,-1.7703125)"
       font-family="'Trebuchet MS', Gadget, sans-serif"
       font-size="20px"
       y="21.694"
       x="5.7820001"
       stroke-width="0"
       fill="#ffffff"
       id="text2"
       style="font-style:normal;font-variant:normal;font-weight:normal;font-stretch:normal;font-size:20px;font-family:'Source Code Pro';-inkscape-font-specification:'Source Code Pro, Normal';font-variant-ligatures:normal;font-variant-caps:normal;font-variant-numeric:normal;font-variant-east-asian:normal;fill:#ffffff;stroke:#000000;stroke-width:0;filter:url(#a)">QD</text>
  </g>
</svg>
