<svg width="34" height="34"
	xmlns="http://www.w3.org/2000/svg" class="">
	<defs>
		<filter height="200%" width="200%" y="-50%" x="-50%" id="a">
			<feGaussianBlur in="SourceGraphic"></feGaussianBlur>
		</filter>
	</defs>
	<path fill="none" d="M-1-1h36v36H-1z"></path>
	<g>
		<path d="M-.166 5.506c0-3.155 1.76-5.712 3.932-5.712H30.22c1.043 0 2.043.602 2.78 1.673.738 1.071 1.152 2.524 1.152 4.04v22.849c0 3.155-1.76 5.712-3.932 5.712H14.133L2.925 48.594l2.628-14.526H3.766c-2.172 0-3.932-2.557-3.932-5.712V5.507z" fill-opacity="null" fill="#7f00ff"></path>
		<text filter="url(#a)" font-weight="bold" stroke="#000" transform="matrix(.98823 0 0 1.1866 -1.818 -.643)" font-family="'Trebuchet MS', Gadget, sans-serif" font-size="20" y="21.694" x="5.782" stroke-width="0" fill="#fff">QD</text>
	</g>
</svg>